# AST/ASF file generated using VICON BodyLanguage
# -----------------------------------------------
:version 1.10
:name VICON
:units
  mass 1.0
  length 0.45
  angle deg
:documentation
   .ast/.asf automatically generated from VICON data using
   VICON BodyBuilder and BodyLanguage model FoxedUp or BRILLIANT.MOD
:root
   order TX TY TZ RX RY RZ
   axis XYZ
   position 0 0 0  
   orientation 0 -0 0 
:bonedata
  begin
     id 1 
     name lhipjoint
     direction 0.515797 -0.759363 0.396637 
     length 2.47888 
     axis 0 -0 0  XYZ
  end
  begin
     id 2 
     name lfemur
     direction 0.34202 -0.939693 0  
     length 6.81885  
     axis 0 -0 20  XYZ
    dof rx ry rz
    limits (-160.0 20.0)
           (-70.0 70.0)
           (-60.0 70.0)
  end
  begin
     id 3 
     name ltibia
     direction 0.342037 -0.939687 0   
     length 7.89258   
     axis 0 -0 20   XYZ
    dof rx
    limits (-10.0 170.0)
  end
  begin
     id 4 
     name lfoot
     direction 0.173497 -0.476678 0.861787   
     length 2.51543   
     axis -90 -1.13533e-015 20   XYZ
    dof rx rz
    limits (-45.0 90.0)
           (-70.0 20.0)
  end
  begin
     id 5 
     name ltoes
     direction 1.53564e-011 -4.21897e-011 1   
     length 1.21388   
     axis -90 -1.13533e-015 20   XYZ
    dof rx
    limits (-90.0 20.0)
  end
  begin
     id 6 
     name rhipjoint
     direction -0.489454 -0.772941 0.403729   
     length 2.43534  
     axis 0 -0 0  XYZ 
  end
  begin
     id 7 
     name rfemur
     direction -0.34202 -0.939693 0   
     length 7.10357   
     axis 0 -0 -20   XYZ
    dof rx ry rz
    limits (-160.0 20.0)
           (-70.0 70.0)
           (-70.0 60.0)
  end
  begin
     id 8 
     name rtibia
     direction -0.34202 -0.939693 0   
     length 9.16127   
     axis 0 -0 -20   XYZ
    dof rx
    limits (-10.0 170.0)
 end
 begin
     id 9 
     name rfoot
     direction -0.270974 -0.748671 0.605033   
     length 1.74894  
     axis -90 1.13533e-015 -20   XYZ
    dof rx rz
    limits (-45.0 90.0)
           (-20.0 70.0)
  end
  begin
     id 10 
     name rtoes
     direction -1.53557e-011 -4.21759e-011 1   
     length 0.787585   
     axis -90 1.13533e-015 -20   XYZ
    dof rx
    limits (-90.0 20.0)
  end
  begin
     id 11 
     name lowerback
     direction -0.0140249 0.999561 0.0260968   
     length 2.16963   
     axis 0 -0 0   XYZ
    dof rx ry rz
    limits (-20.0 45.0)
           (-30.0 30.0)
           (-30.0 30.0)
  end
  begin
     id 12 
     name upperback
     direction 0.00860018 0.999959 -0.002711   
     length 2.1726   
     axis 0 -0 0   XYZ
    dof rx ry rz
    limits (-20.0 45.0)
           (-30.0 30.0)
           (-30.0 30.0)
  end
  begin
     id 13 
     name thorax
     direction 0.015211 0.999782 -0.0143191   
     length 2.17061   
     axis 0 -0 0   XYZ
    dof rx ry rz
    limits (-20.0 45.0)
           (-30.0 30.0)
           (-30.0 30.0)
  end
  begin
     id 14 
     name lowerneck
     direction -0.0140143 0.999447 0.030145   
     length 2.26749   
     axis 0 -0 0   XYZ
    dof rx ry rz
    limits (-20.0 45.0)
           (-30.0 30.0)
           (-30.0 30.0)
  end
  begin
     id 15 
     name upperneck
     direction 0.118062 0.961438 -0.248392   
     length 2.22728   
     axis 0 -0 0   XYZ
    dof rx ry rz
    limits (-20.0 45.0)
           (-30.0 30.0)
           (-30.0 30.0)
  end
  begin
     id 16
     name head
     direction 0.0431885 0.9954 -0.085514  
     length 2.28786  
     axis 0 -0 0   XYZ
    dof rx ry rz
    limits (-20.0 45.0)
           (-30.0 30.0)
           (-30.0 30.0)
  end
  begin
     id 17 
     name lclavicle
     direction 0.912126 0.409548 0.0172323  
     length 4.31571  
     axis 0 -0 0   XYZ
    dof ry rz
    limits (-20.0 10.0)
           (0.0 20.0)
  end
  begin
     id 18 
     name lhumerus
     direction 1 -4.48977e-011 1.93091e-027   
     length 5.13658   
     axis 180 -30 -90   XYZ
    dof rx ry rz
    limits (-60.0 90.0)
           (-90.0 90.0)
           (-90.0 90.0)
  end
  begin
     id 19
     name lradius
     direction 1 -4.48916e-011 6.84018e-027   
     length 3.22473   
     axis 180 -30 -90   XYZ
    dof rx
    limits (-10.0 170.0)
  end
  begin
     id 20
     name lwrist
     direction 1 -4.48987e-011 7.01981e-027   
     length 1.61236   
     axis -4.37994e-015 90 90   XYZ
    dof ry
    limits (-180.0 0.0)
 end
  begin
     id 21 
     name lhand
     direction 1 -4.49037e-011 1.40335e-026   
     length 0.936406   
     axis -8.96029e-015 90 90   XYZ
    dof rx rz
    limits (-90.0 90.0)
           (-45.0 45.0)
  end
  begin
     id 22 
     name lfingers
     direction 1 -4.48886e-011 2.8104e-026   
     length 0.754955   
     axis -1.79203e-014 90 90   XYZ
    dof rx
    limits (0.0 90.0)
  end
  begin
     id 23
     name lthumb
     direction 0.707107 -6.34937e-011 0.707107   
     length 1.08397   
     axis -90 45 -4.48555e-014   XYZ
    dof rx rz
    limits (-45.0 45.0)
           (-45.0 45.0)
  end
  begin
     id 24 
     name rclavicle
     direction -0.947962 0.317997 0.0156638   
     length 4.86918  
     axis 0 -0 0   XYZ 
    dof ry rz
    limits (-10.0 20.0)
           (-20.0 0.0)
  end
  begin
     id 25 
     name rhumerus
     direction -1 -4.48951e-011 2.80534e-018  
     length 5.60911   
     axis 180 30 90   XYZ
    dof rx ry rz
    limits (-90.0 60.0)
           (-90.0 90.0)
           (-90.0 90.0)
  end
  begin
     id 26 
     name rradius
     direction -1 -4.4898e-011 2.11315e-027   
     length 3.38704   
     axis 180 30 90   XYZ
    dof rx
    limits (-10.0 170.0)
  end
  begin
     id 27 
     name rwrist
     direction -1 -4.48933e-011 7.02314e-027   
     length 1.69352   
     axis -4.37994e-015 -90 -90   XYZ
    dof ry
    limits (-180.0 0.0)
  end
  begin
     id 28
     name rhand
     direction -1 -4.48937e-011 1.40458e-026   
     length 0.755878   
     axis -8.96029e-015 -90 -90   XYZ
    dof rx rz
    limits (-90.0 90.0)
           (-45.0 45.0)
  end
  begin
     id 29
     name rfingers
     direction -1 -4.4901e-011 2.80737e-026   
     length 0.609409   
     axis -1.79203e-014 -90 -90   XYZ
    dof rx
    limits (0.0 90.0)
  end
  begin
     id 30
     name rthumb
     direction -0.707107 -6.34968e-011 0.707107   
     length 0.874992   
     axis -90 -45 4.48555e-014   XYZ
    dof rx rz
    limits (-45.0 45.0)
           (-45.0 45.0)
  end
:hierarchy
  begin
    root lhipjoint rhipjoint lowerback
    lhipjoint lfemur
    lfemur ltibia
    ltibia lfoot
    lfoot ltoes
    rhipjoint rfemur
    rfemur rtibia
    rtibia rfoot
    rfoot rtoes
    lowerback upperback
    upperback thorax
    thorax lowerneck lclavicle rclavicle
    lowerneck upperneck
    upperneck head
    lclavicle lhumerus
    lhumerus lradius
    lradius lwrist
    lwrist lhand lthumb
    lhand lfingers
    rclavicle rhumerus
    rhumerus rradius
    rradius rwrist
    rwrist rhand rthumb
    rhand rfingers
  end

#!OML:ASF C:\ViconDB\ViconDB\414\Spring2016\041811\Spring2016.ASF
:FULLY-SPECIFIED
:DEGREES
1
root 8.02867 18.2846 2.10804 -177.638 -5.42725 179.056
lowerback -5.32177 -0.0745589 -4.41214
upperback -0.174512 0.146709 -0.168795
thorax 2.79474 0.00465067 2.3132
lowerneck -16.0859 0.501645 -5.7178
upperneck 24.6585 -1.72081 10.7582
head 10.6988 -0.466536 4.56028
rclavicle -5.35476e-015 5.96354e-016
rhumerus -39.9224 -13.5901 -90.6257
rradius 37.7186
rwrist 34.3319
rhand -35.1391 -14.3157
rfingers 7.12502
rthumb -8.27903 -44.1334
lclavicle -5.35476e-015 5.96354e-016
lhumerus -37.9397 -4.93583 94.7314
lradius 25.7997
lwrist -30.5192
lhand -27.2927 14.9792
lfingers 7.12502
lthumb -0.702752 44.9578
rfemur 5.94505 -13.7905 17.2388
rtibia 8.5365
rfoot -15.1669 -5.13488
rtoes -13.0391
lfemur -4.32926 -14.7382 -16.1294
ltibia 20.1531
lfoot -21.5443 8.18825
ltoes -9.61183
2
root 8.02887 18.2823 2.10246 -177.671 -5.36637 179.055
lowerback -5.36905 -0.0571782 -4.46766
upperback -0.146454 0.176427 -0.138411
thorax 2.84797 0.0172572 2.37826
lowerneck -16.1183 0.636414 -5.53144
upperneck 24.6843 -1.50418 10.5256
head 10.6907 -0.370799 4.47253
rclavicle 7.50412e-015 7.7526e-015
rhumerus -40.0768 -13.6493 -90.662
rradius 37.6085
rwrist 34.8347
rhand -35.0902 -14.3603
rfingers 7.12502
rthumb -8.23183 -44.1799
lclavicle 7.50412e-015 7.7526e-015
lhumerus -37.8945 -4.72077 94.537
lradius 25.6415
lwrist -30.8254
lhand -27.4377 15.0398
lfingers 7.12502
lthumb -0.842825 45.0179
rfemur 5.96715 -13.7289 17.2355
rtibia 8.57601
rfoot -15.1496 -5.14086
rtoes -13.0162
lfemur -4.23952 -14.8648 -16.1364
ltibia 20.1478
lfoot -21.6614 8.23368
ltoes -9.37606
3
root 8.02937 18.2804 2.0969 -177.716 -5.34426 179.083
lowerback -5.39419 -0.0209858 -4.35358
upperback -0.104113 0.222556 -0.265124
thorax 2.90325 0.0401872 2.18694
lowerneck -16.2019 0.756113 -5.14184
upperneck 24.6657 -1.39565 10.3887
head 10.6892 -0.295486 4.36915
rclavicle 1.4839e-014 -1.03368e-014
rhumerus -40.1312 -13.8639 -90.9548
rradius 37.4888
rwrist 34.8125
rhand -34.9977 -14.3197
rfingers 7.12502
rthumb -8.14258 -44.1428
lclavicle 1.4839e-014 -1.03368e-014
lhumerus -37.8387 -4.79252 94.1438
lradius 25.521
lwrist -30.9885
lhand -27.5331 15.1535
lfingers 7.12502
lthumb -0.934932 45.1312
rfemur 6.06539 -13.7046 17.2669
rtibia 8.51832
rfoot -15.105 -5.14021
rtoes -13.1403
lfemur -4.1923 -14.8383 -16.1143
ltibia 20.1818
lfoot -21.6922 8.22346
ltoes -9.38546
4
root 8.03027 18.2777 2.09148 -177.767 -5.32416 179.11
lowerback -5.37304 -0.0521965 -4.41374
upperback -0.119773 0.181767 -0.166629
thorax 2.87764 0.019868 2.31929
lowerneck -16.1662 0.889664 -5.20315
upperneck 24.7051 -1.16196 10.3067
head 10.673 -0.202428 4.38193
rclavicle -3.33741e-015 -8.54774e-015
rhumerus -40.3164 -13.7282 -90.9282
rradius 37.3184
rwrist 35.0518
rhand -34.8842 -14.1446
rfingers 7.12502
rthumb -8.03296 -43.972
lclavicle -3.33741e-015 -8.54774e-015
lhumerus -37.85 -4.33472 93.9217
lradius 25.3623
lwrist -31.5544
lhand -27.4238 15.1035
lfingers 7.12502
lthumb -0.829387 45.0816
rfemur 6.14428 -13.682 17.2932
rtibia 8.50897
rfoot -15.0657 -5.1683
rtoes -13.0684
lfemur -4.1296 -14.8127 -16.0948
ltibia 20.2028
lfoot -21.6967 8.22301
ltoes -9.45095
